<svg id="Layer_1" data-name="Layer 1" xmlns="http://www.w3.org/2000/svg" width="27" height="27" viewBox="0 0 27 27">
  <title>instagram-icn</title>
  <path d="M27,13.5A13.5,13.5,0,1,1,13.5,0,13.51,13.51,0,0,1,27,13.5ZM21.37,7.87a2.24,2.24,0,0,0-2.24-2.24H7.87A2.24,2.24,0,0,0,5.63,7.87V19.13a2.24,2.24,0,0,0,2.24,2.24H19.13a2.24,2.24,0,0,0,2.24-2.24ZM18,13.5a4.5,4.5,0,0,1-9,0,4.19,4.19,0,0,1,.14-1.12H7.32v6.75a.55.55,0,0,0,.55.55H19.13a.55.55,0,0,0,.55-.55V12.38H17.86A4.19,4.19,0,0,1,18,13.5Zm-4.5,2.81a2.81,2.81,0,1,0-2.81-2.81A2.8,2.8,0,0,0,13.5,16.31Zm5.63-9H17.44a.56.56,0,0,0-.56.55V9.56a.56.56,0,0,0,.56.56h1.69a.56.56,0,0,0,.55-.56V7.87A.55.55,0,0,0,19.13,7.32Z"/>
</svg>
