<svg id="Layer_1" data-name="Layer 1" xmlns="http://www.w3.org/2000/svg" width="27" height="27" viewBox="0 0 27 27">
  <title>linkedin-icn</title>
  <path d="M27,13.5A13.5,13.5,0,1,1,13.5,0,13.47,13.47,0,0,1,27,13.5ZM10.12,7a2,2,0,0,0-2.25-2A2,2,0,0,0,5.63,7,2,2,0,0,0,7.84,9h0A2,2,0,0,0,10.12,7Zm-.56,3.66H6.18v9.56H9.56Zm12.38,4.5c0-3.1-1.53-5.07-3.94-5.07a2.89,2.89,0,0,0-2.81,2l-.12-1.47H11.72c0,.37.09,2.24.09,2.24v7.32h3.38V15.19c0-1.37.62-2.26,1.66-2.26s1.71.54,1.71,2.26v5.06h3.38Z"/>
</svg>
