<svg id="Layer_1" data-name="Layer 1" xmlns="http://www.w3.org/2000/svg" width="27" height="27" viewBox="0 0 27 27">
  <title>pinterest-icn</title>
  <path d="M13.5,27a12.64,12.64,0,0,1-3.85-.57A10.46,10.46,0,0,0,11,23.56c.16-.59.94-3.72.94-3.72a3.85,3.85,0,0,0,3.31,1.69c4.35,0,7.28-4,7.28-9.24,0-4-3.4-7.75-8.53-7.75C7.59,4.54,4.38,9.12,4.38,13c0,2.34.87,4.41,2.74,5.16a.49.49,0,0,0,.7-.35c0-.22.21-.81.27-1.06s0-.46-.22-.75A4,4,0,0,1,7,13.32a6.41,6.41,0,0,1,6.66-6.48c3.62,0,5.59,2.22,5.59,5.2,0,3.87-1.72,7.14-4.29,7.14a2.07,2.07,0,0,1-2.12-2.58C13.25,14.87,14,13,14,11.81a1.8,1.8,0,0,0-1.81-2c-1.44,0-2.6,1.51-2.6,3.5a5,5,0,0,0,.44,2.13s-1.5,6.25-1.74,7.37a10.62,10.62,0,0,0-.23,3.1A13.52,13.52,0,1,1,13.5,27Z"/>
</svg>
