<svg id="Layer_1" data-name="Layer 1" xmlns="http://www.w3.org/2000/svg" width="27" height="27" viewBox="0 0 27 27">
  <title>twitter-icn</title>
  <path d="M27,13.5A13.5,13.5,0,1,1,13.5,0,13.47,13.47,0,0,1,27,13.5ZM23.62,8.56a8.38,8.38,0,0,1-2.21.6A3.68,3.68,0,0,0,23.06,7a7.54,7.54,0,0,1-2.4.93,3.81,3.81,0,0,0-6.59,2.64,3.68,3.68,0,0,0,.09.87,10.93,10.93,0,0,1-7.94-4,4.17,4.17,0,0,0-.5,1.93,3.78,3.78,0,0,0,1.69,3.19,3.47,3.47,0,0,1-1.73-.47v0a3.87,3.87,0,0,0,3.07,3.78,3.66,3.66,0,0,1-1,.12A5.37,5.37,0,0,1,7,16a3.75,3.75,0,0,0,3.57,2.59,7.75,7.75,0,0,1-4.76,1.76,8.64,8.64,0,0,1-.9-.07,10.81,10.81,0,0,0,5.87,1.69A10.81,10.81,0,0,0,21.71,11v-.5A7.78,7.78,0,0,0,23.62,8.56Z"/>
</svg>
